<?xml version="1.0" encoding="UTF-8" standalone="no"?>
<svg
   width="500"
   height="60"
   version="1.1"
   id="svg148"
   sodipodi:docname="PGRdup v1.svg"
   inkscape:export-filename="PGRdup v1.png"
   inkscape:export-xdpi="300"
   inkscape:export-ydpi="300"
   inkscape:version="1.2.1 (9c6d41e410, 2022-07-14)"
   xmlns:inkscape="http://www.inkscape.org/namespaces/inkscape"
   xmlns:sodipodi="http://sodipodi.sourceforge.net/DTD/sodipodi-0.dtd"
   xmlns="http://www.w3.org/2000/svg"
   xmlns:svg="http://www.w3.org/2000/svg"
   xmlns:rdf="http://www.w3.org/1999/02/22-rdf-syntax-ns#"
   xmlns:cc="http://creativecommons.org/ns#"
   xmlns:dc="http://purl.org/dc/elements/1.1/">
  <defs
     id="defs152" />
  <sodipodi:namedview
     id="namedview150"
     pagecolor="#ffffff"
     bordercolor="#666666"
     borderopacity="1.0"
     inkscape:showpageshadow="2"
     inkscape:pageopacity="0.0"
     inkscape:pagecheckerboard="0"
     inkscape:deskcolor="#d1d1d1"
     showgrid="false"
     inkscape:zoom="1.228"
     inkscape:cx="343.64821"
     inkscape:cy="-48.859935"
     inkscape:window-width="1920"
     inkscape:window-height="1017"
     inkscape:window-x="-8"
     inkscape:window-y="-8"
     inkscape:window-maximized="1"
     inkscape:current-layer="svg148" />
  <metadata
     id="metadata2">
    <rdf:RDF>
      <cc:Work
         rdf:about="">
        <dc:format>image/svg+xml</dc:format>
        <dc:type
           rdf:resource="http://purl.org/dc/dcmitype/StillImage" />
        <dc:title />
      </cc:Work>
    </rdf:RDF>
  </metadata>
  <g
     transform="matrix(.63139 0 0 .63139 108.61 -214.08)"
     id="g22">
    <g
       aria-label="dup"
       id="g10">
      <path
         d="m9.3187 416.45v-6.2538q-4.4144 7.0202-10.913 7.0202-5.6407 0-8.9209-4.3838-3.2495-4.3838-3.2495-11.925 0-8.2771 3.8626-13.366 3.8626-5.1195 10.116-5.1195 5.3648 0 9.1048 4.5371v-18.915h6.0392v48.406zm0-24.954q-4.2305-4.5371-8.2771-4.5371-3.9853 0-6.1925 3.4948-2.1766 3.4948-2.1766 9.8405 0 11.741 7.0202 11.741 5.1195 0 9.6259-6.3764z"
         id="path4" />
      <path
         d="m52.482 383.16v33.292h-6.0392v-6.2538q-4.1692 7.0202-11.373 7.0202-9.442 0-9.442-11.281v-22.777h6.0392v21.122q0 3.924 1.1956 5.5794 1.1956 1.6248 4.0772 1.6248 4.5371 0 9.5033-6.5604v-21.766z"
         id="path6" />
      <path
         d="m63.61 428.56v-45.401h6.0392v6.2538q4.3838-6.9895 10.883-6.9895 5.6713 0 8.9209 4.3838 3.2802 4.3531 3.2802 11.894 0 8.2771-3.8626 13.397t-10.116 5.1195q-5.3648 0-9.1048-4.5371v15.88zm6.0392-20.417q4.1999 4.5371 8.2771 4.5371 3.9853 0 6.1618-3.4948 2.2072-3.5254 2.2072-9.8405 0-11.772-7.0202-11.772-5.1195 0-9.6259 6.3764z"
         id="path8" />
    </g>
    <path
       d="m-57.701 345.22c-25.756 0-47.549 13.869-47.549 31.7 0 16.84 21.793 31.7 47.549 31.7s47.549-13.869 47.549-31.7c0-17.831-21.793-31.7-47.549-31.7zm5.9437 11.887c19.812 0 38.634 9.9061 38.634 21.793 0 11.887-16.84 21.793-36.653 21.793s-35.662-9.9061-35.662-21.793c0-11.887 13.869-21.793 33.681-21.793z"
       fill="#919191"
       fill-opacity=".91489"
       id="path12" />
    <path
       d="m-68.331 363.01v54h16v-21c4 0 6-1 9 4 4 7 9 17 9 17h19s-12-20-13-21c-1.844-2-4-2-7-3 6-1 11.355-3.56 13.3-9 1.7-5 1.5-11.36-2.144-15.625-3.156-3.375-6.156-5.375-14.156-5.375h-30zm16 11h10.5c2.49 0 4.5 2.5 4.5 5s-2 5-4.5 5h-10.5v-10z"
       fill="#0051d6"
       id="path14" />
    <g
       aria-label="PG"
       id="g20">
      <path
         d="m-162.01 415.77v-51.596h16.77q8.9679 0 12.788 1.6086 7.8017 3.378 7.8017 13.03 0 8.1234-6.3137 12.748-6.2735 4.6247-17.333 4.6247h-5.7909v19.585zm7.9223-25.536h4.9464q16.086 0 16.086-11.26 0-4.7454-3.0563-6.7963-3.0161-2.051-10.094-2.051h-7.8821z"
         id="path16" />
      <path
         d="m-76.719 365.26v7.2789q-7.9625-3.6596-14.879-3.6596-8.0028 0-13.19 5.8714-5.1475 5.8714-5.1475 14.96 0 9.1288 5.8312 15 5.8312 5.8312 14.879 5.8312 2.051 0 5.2279-0.48258v-13.633h-9.6918v-5.9518h17.614v23.968q-8.0832 2.5738-15.322 2.5738-11.984 0-19.504-7.4398-7.48-7.4397-7.48-19.343 0-12.185 7.48-19.745t19.544-7.5604q6.8365 0 14.638 2.3325z"
         id="path18" />
    </g>
  </g>
  <g
     fill-opacity=".78836"
     aria-label="Discover Probable Duplicates in Plant Genetic Resources Collections"
     id="g144">
    <path
       d="m181.82 25.533 2.6895-12.885h3.8848q1.3975 0 2.1358 0.20215 1.0547 0.27246 1.8018 0.97559 0.74707 0.69434 1.125 1.7402 0.37793 1.0459 0.37793 2.3467 0 1.5557-0.47461 2.8389-0.46582 1.2744-1.2305 2.25-0.75585 0.9668-1.5908 1.5205-0.82617 0.54492-1.96 0.80859-0.86132 0.20215-2.1182 0.20215zm2.0303-1.459h2.0391q1.3799 0 2.4522-0.25488 0.66797-0.1582 1.1426-0.46582 0.62402-0.39551 1.1338-1.0459 0.66796-0.86133 1.0635-1.96 0.4043-1.1074 0.4043-2.5137 0-1.5645-0.54492-2.3994-0.54492-0.84375-1.3887-1.1162-0.62403-0.20215-1.9424-0.20215h-2.2764z"
       id="path24" />
    <path
       d="m196.52 14.45 0.37793-1.8018h1.582l-0.37793 1.8018zm-2.3203 11.083 1.9512-9.334h1.5908l-1.9512 9.334z"
       id="path26" />
    <path
       d="m198.04 22.342 1.5908-0.09668q0 0.68555 0.21093 1.1689 0.21094 0.4834 0.77344 0.79102 0.57129 0.30762 1.3272 0.30762 1.0547 0 1.582-0.42188t0.52734-0.99316q0-0.41309-0.3164-0.78223-0.3252-0.36914-1.5908-0.90527-1.2568-0.54492-1.6084-0.76465-0.58887-0.36035-0.8877-0.84375-0.29882-0.49219-0.29882-1.125 0-1.1074 0.8789-1.8984 0.87891-0.79102 2.4609-0.79102 1.7578 0 2.6719 0.81738 0.92286 0.80859 0.95801 2.1357l-1.5557 0.10547q-0.0352-0.84375-0.59766-1.3359-0.5625-0.49219-1.5908-0.49219-0.82617 0-1.2832 0.37793t-0.45703 0.81738 0.3955 0.77344q0.26368 0.22852 1.3623 0.70312 1.8281 0.79102 2.3027 1.248 0.75586 0.72949 0.75586 1.7754 0 0.69434-0.43066 1.3623-0.42188 0.66797-1.3008 1.0723-0.87012 0.39551-2.0566 0.39551-1.6172 0-2.751-0.7998-1.1338-0.7998-1.0723-2.6016z"
       id="path28" />
    <path
       d="m212.97 22.131 1.5908 0.16699q-0.59765 1.749-1.7051 2.6016-1.0986 0.84375-2.5049 0.84375-1.5205 0-2.4697-0.98438-0.94043-0.98438-0.94043-2.751 0-1.5293 0.60644-3.0059 0.60645-1.4766 1.7314-2.2412 1.1338-0.77344 2.584-0.77344 1.5029 0 2.3818 0.85254 0.8789 0.84375 0.8789 2.2412l-1.5644 0.10547q-9e-3 -0.8877-0.51855-1.3887-0.50098-0.50098-1.3272-0.50098-0.95801 0-1.6611 0.60644-0.70312 0.60644-1.1074 1.8457-0.39551 1.2305-0.39551 2.373 0 1.1953 0.52735 1.793 0.52734 0.59766 1.3008 0.59766t1.4766-0.58887q0.71192-0.58887 1.1162-1.793z"
       id="path30" />
    <path
       d="m215.44 21.991q0-2.7334 1.6084-4.5264 1.3272-1.4766 3.4805-1.4766 1.6875 0 2.7158 1.0547 1.0371 1.0547 1.0371 2.8477 0 1.6084-0.65039 2.9971-0.65039 1.3799-1.8545 2.1182-1.1953 0.73828-2.5225 0.73828-1.0898 0-1.9863-0.46582-0.8877-0.46582-1.3623-1.3184-0.46582-0.85254-0.46582-1.9688zm1.5908-0.1582q0 1.3184 0.63281 2.0039 0.63282 0.67676 1.6084 0.67676 0.50977 0 1.0107-0.20215 0.50098-0.21094 0.93165-0.63281 0.43066-0.42188 0.72949-0.95801 0.30761-0.54492 0.49219-1.1689 0.27246-0.87012 0.27246-1.6699 0-1.2656-0.64161-1.96-0.63281-0.70312-1.5996-0.70312-0.74708 0-1.3623 0.36035-0.61523 0.35156-1.1162 1.0371-0.49219 0.68555-0.72949 1.5996-0.22852 0.90527-0.22852 1.6172z"
       id="path32" />
    <path
       d="m227.16 25.533-1.5293-9.334h1.5469l0.79981 5.1416q0.13183 0.84375 0.32519 2.751 0.45703-0.99316 1.169-2.2764l3.1201-5.6162h1.6787l-5.3438 9.334z"
       id="path34" />
    <path
       d="m240.29 22.36 1.5469 0.1582q-0.33398 1.1514-1.5381 2.1885-1.1953 1.0371-2.8564 1.0371-1.0371 0-1.9072-0.47461-0.86133-0.4834-1.3184-1.3975-0.44824-0.91406-0.44824-2.083 0-1.5293 0.70312-2.9619 0.71191-1.4414 1.8369-2.1357 1.125-0.70312 2.4346-0.70312 1.6699 0 2.6631 1.0371 1.002 1.0371 1.002 2.8301 0 0.68555-0.12304 1.4062h-6.873q-0.0352 0.27246-0.0352 0.49219 0 1.3096 0.59766 2.0039 0.60645 0.68555 1.4766 0.68555 0.81739 0 1.6084-0.53613 0.79102-0.53613 1.2305-1.5469zm-4.623-2.3115h5.2383q9e-3 -0.24609 9e-3 -0.35156 0-1.1953-0.59765-1.8281-0.59766-0.6416-1.5381-0.6416-1.0195 0-1.8633 0.70312-0.83496 0.70312-1.248 2.1182z"
       id="path36" />
    <path
       d="m243.08 25.533 1.9512-9.334h1.4062l-0.39551 1.9072q0.7207-1.0811 1.4062-1.5996 0.69433-0.51855 1.415-0.51855 0.47461 0 1.1689 0.34277l-0.65039 1.4766q-0.41308-0.29883-0.90527-0.29883-0.83496 0-1.7139 0.93164t-1.3799 3.3486l-0.79102 3.7441z"
       id="path38" />
    <path
       d="m254.35 25.533 2.6982-12.885h5.3789q1.3975 0 2.0918 0.3252 0.70312 0.31641 1.1602 1.0986 0.45703 0.77344 0.45703 1.7402 0 0.7998-0.32519 1.626-0.3252 0.82617-0.82617 1.3623-0.49219 0.53613-1.002 0.80859-0.50976 0.27246-1.0898 0.4043-1.2393 0.29004-2.5049 0.29004h-3.2256l-1.0898 5.2295zm3.1201-6.6885h2.8389q1.6523 0 2.4258-0.35156 0.77343-0.36035 1.2392-1.0898 0.46582-0.72949 0.46582-1.5469 0-0.63281-0.24609-1.0283-0.24609-0.4043-0.69434-0.58887-0.44824-0.19336-1.7226-0.19336h-3.3047z"
       id="path40" />
    <path
       d="m265.83 25.533 1.9512-9.334h1.4062l-0.39551 1.9072q0.7207-1.0811 1.4062-1.5996 0.69433-0.51855 1.415-0.51855 0.47461 0 1.1689 0.34277l-0.65039 1.4766q-0.41308-0.29883-0.90527-0.29883-0.83496 0-1.7139 0.93164-0.8789 0.93164-1.3799 3.3486l-0.79102 3.7441z"
       id="path42" />
    <path
       d="m271.75 21.991q0-2.7334 1.6084-4.5264 1.3271-1.4766 3.4805-1.4766 1.6875 0 2.7158 1.0547 1.0371 1.0547 1.0371 2.8477 0 1.6084-0.65039 2.9971-0.65039 1.3799-1.8545 2.1182-1.1953 0.73828-2.5225 0.73828-1.0898 0-1.9863-0.46582-0.88769-0.46582-1.3623-1.3184-0.46582-0.85254-0.46582-1.9688zm1.5908-0.1582q0 1.3184 0.63281 2.0039 0.63281 0.67676 1.6084 0.67676 0.50976 0 1.0107-0.20215 0.50098-0.21094 0.93164-0.63281 0.43067-0.42188 0.72949-0.95801 0.30762-0.54492 0.49219-1.1689 0.27246-0.87012 0.27246-1.6699 0-1.2656-0.6416-1.96-0.63281-0.70312-1.5996-0.70312-0.74707 0-1.3623 0.36035-0.61524 0.35156-1.1162 1.0371-0.49219 0.68555-0.7295 1.5996-0.22851 0.90527-0.22851 1.6172z"
       id="path44" />
    <path
       d="m281.12 25.533 2.6894-12.885h1.5908l-0.95801 4.6055q0.75586-0.69434 1.3711-0.97559 0.61523-0.29004 1.2832-0.29004 1.3096 0 2.1797 0.97558 0.8789 0.97559 0.8789 2.8389 0 1.2393-0.35156 2.2676-0.35156 1.0283-0.87012 1.7314-0.51855 0.69434-1.0723 1.1162-0.55371 0.41309-1.1338 0.61523-0.58008 0.21094-1.1162 0.21094-0.92285 0-1.626-0.4834-0.70312-0.49219-1.0986-1.4941l-0.36914 1.7666zm2.3555-3.832-9e-3 0.29883q0 1.1953 0.57129 1.8193 0.57128 0.62402 1.4238 0.62402 0.83496 0 1.5293-0.58008 0.70313-0.58887 1.1514-1.8281 0.44824-1.2393 0.44824-2.2852 0-1.1777-0.57129-1.8281-0.5625-0.65039-1.3975-0.65039-0.86133 0-1.582 0.66797-0.7207 0.65918-1.2041 2.0391-0.36035 1.0283-0.36035 1.7227z"
       id="path46" />
    <path
       d="m297.06 24.372q-0.82617 0.71191-1.5908 1.0459-0.76464 0.3252-1.6348 0.3252-1.292 0-2.083-0.75586-0.79102-0.76465-0.79102-1.9512 0-0.78223 0.35157-1.3799 0.36035-0.60644 0.94922-0.9668 0.58886-0.36914 1.4414-0.52734 0.53613-0.10547 2.0303-0.16699 1.5029-0.06152 2.1533-0.31641 0.18457-0.65039 0.18457-1.0811 0-0.55371-0.4043-0.87012-0.55371-0.43945-1.6172-0.43945-1.002 0-1.6436 0.44824-0.63282 0.43945-0.92285 1.2568l-1.6084-0.14062q0.49218-1.3887 1.5557-2.127 1.0723-0.73828 2.6982-0.73828 1.7314 0 2.7422 0.82617 0.77344 0.61524 0.77344 1.5996 0 0.74707-0.21973 1.7314l-0.51855 2.3203q-0.2461 1.1074-0.2461 1.8018 0 0.43945 0.19336 1.2656h-1.6084q-0.13183-0.45703-0.18457-1.1602zm0.58887-3.5684q-0.33398 0.13184-0.7207 0.20215-0.37793 0.07031-1.2744 0.14941-1.3887 0.12305-1.96 0.31641-0.57129 0.18457-0.86133 0.59766-0.29003 0.41309-0.29003 0.91406 0 0.66797 0.45703 1.0986 0.46582 0.43066 1.3184 0.43066 0.79101 0 1.5205-0.41309 0.7295-0.42188 1.1514-1.1689 0.42188-0.74707 0.65918-2.127z"
       id="path48" />
    <path
       d="m300.42 25.533 2.6894-12.885h1.5908l-0.958 4.6055q0.75586-0.69434 1.3711-0.97559 0.61523-0.29004 1.2832-0.29004 1.3096 0 2.1797 0.97558 0.87891 0.97559 0.87891 2.8389 0 1.2393-0.35157 2.2676-0.35156 1.0283-0.87011 1.7314-0.51856 0.69434-1.0723 1.1162-0.55371 0.41309-1.1338 0.61523-0.58008 0.21094-1.1162 0.21094-0.92285 0-1.626-0.4834-0.70313-0.49219-1.0986-1.4941l-0.36914 1.7666zm2.3555-3.832-9e-3 0.29883q0 1.1953 0.57129 1.8193 0.57129 0.62402 1.4238 0.62402 0.83496 0 1.5293-0.58008 0.70313-0.58887 1.1514-1.8281 0.44824-1.2393 0.44824-2.2852 0-1.1777-0.57128-1.8281-0.5625-0.65039-1.3975-0.65039-0.86132 0-1.582 0.66797-0.7207 0.65918-1.2041 2.0391-0.36035 1.0283-0.36035 1.7227z"
       id="path50" />
    <path
       d="m309.95 25.533 2.6895-12.885h1.5908l-2.6895 12.885z"
       id="path52" />
    <path
       d="m320.56 22.36 1.5469 0.1582q-0.33398 1.1514-1.5381 2.1885-1.1953 1.0371-2.8564 1.0371-1.0371 0-1.9072-0.47461-0.86133-0.4834-1.3184-1.3975-0.44824-0.91406-0.44824-2.083 0-1.5293 0.70313-2.9619 0.71191-1.4414 1.8369-2.1357 1.125-0.70312 2.4346-0.70312 1.6699 0 2.6631 1.0371 1.002 1.0371 1.002 2.8301 0 0.68555-0.12305 1.4062h-6.873q-0.0352 0.27246-0.0352 0.49219 0 1.3096 0.59766 2.0039 0.60644 0.68555 1.4766 0.68555 0.81738 0 1.6084-0.53613 0.79101-0.53613 1.2305-1.5469zm-4.623-2.3115h5.2383q9e-3 -0.24609 9e-3 -0.35156 0-1.1953-0.59766-1.8281-0.59765-0.6416-1.5381-0.6416-1.0195 0-1.8633 0.70312-0.83497 0.70312-1.248 2.1182z"
       id="path54" />
    <path
       d="m329.01 25.533 2.6894-12.885h3.8848q1.3975 0 2.1357 0.20215 1.0547 0.27246 1.8018 0.97559 0.74707 0.69434 1.125 1.7402 0.37793 1.0459 0.37793 2.3467 0 1.5557-0.47461 2.8389-0.46582 1.2744-1.2305 2.25-0.75586 0.9668-1.5908 1.5205-0.82617 0.54492-1.96 0.80859-0.86133 0.20215-2.1182 0.20215zm2.0303-1.459h2.0391q1.3799 0 2.4521-0.25488 0.66797-0.1582 1.1426-0.46582 0.62403-0.39551 1.1338-1.0459 0.66797-0.86133 1.0635-1.96 0.4043-1.1074 0.4043-2.5137 0-1.5645-0.54493-2.3994-0.54492-0.84375-1.3887-1.1162-0.62402-0.20215-1.9424-0.20215h-2.2764z"
       id="path56" />
    <path
       d="m347.82 23.845q-1.6787 1.8984-3.4365 1.8984-1.0811 0-1.749-0.61523-0.65918-0.62402-0.65918-1.5205 0-0.58887 0.29883-2.0215l1.125-5.3877h1.5908l-1.248 5.9678q-0.1582 0.74707-0.1582 1.1602 0 0.52734 0.31641 0.82617 0.32519 0.29004 0.94922 0.29004 0.66797 0 1.3008-0.3252 0.6416-0.3252 1.0986-0.87891 0.46582-0.55371 0.75586-1.3096 0.19336-0.4834 0.44824-1.6963l0.84375-4.0342h1.5908l-1.9512 9.334h-1.4678z"
       id="path58" />
    <path
       d="m350.32 29.11 2.6982-12.911h1.4678l-0.27246 1.3008q0.81738-0.85254 1.459-1.1777 0.65039-0.33398 1.3711-0.33398 1.3359 0 2.2148 0.97558 0.87891 0.9668 0.87891 2.7773 0 1.459-0.4834 2.6631-0.4834 1.1953-1.1865 1.9248-0.70312 0.72949-1.4238 1.0723-0.72071 0.34277-1.4766 0.34277-1.6787 0-2.6016-1.7051l-1.0547 5.0713zm3.1465-7.3916q0 1.0459 0.14941 1.4502 0.21973 0.57129 0.72071 0.92285 0.50097 0.35156 1.1602 0.35156 1.3711 0 2.2148-1.5381 0.84375-1.5469 0.84375-3.1553 0-1.1865-0.57129-1.8281-0.5625-0.65039-1.4062-0.65039-0.60645 0-1.125 0.3252-0.51856 0.31641-0.9668 0.95801-0.43945 0.63281-0.72949 1.5557-0.29004 0.92285-0.29004 1.6084z"
       id="path60" />
    <path
       d="m360.62 25.533 2.6894-12.885h1.5908l-2.6894 12.885z"
       id="path62" />
    <path
       d="m366.64 14.45 0.37793-1.8018h1.582l-0.37793 1.8018zm-2.3203 11.083 1.9512-9.334h1.5908l-1.9512 9.334z"
       id="path64" />
    <path
       d="m374.47 22.131 1.5908 0.16699q-0.59766 1.749-1.7051 2.6016-1.0986 0.84375-2.5049 0.84375-1.5205 0-2.4697-0.98438-0.94043-0.98438-0.94043-2.751 0-1.5293 0.60645-3.0059 0.60644-1.4766 1.7314-2.2412 1.1338-0.77344 2.584-0.77344 1.5029 0 2.3818 0.85254 0.87891 0.84375 0.87891 2.2412l-1.5644 0.10547q-9e-3 -0.8877-0.51856-1.3887-0.50098-0.50098-1.3272-0.50098-0.958 0-1.6611 0.60644-0.70312 0.60644-1.1074 1.8457-0.39551 1.2305-0.39551 2.373 0 1.1953 0.52734 1.793 0.52735 0.59766 1.3008 0.59766 0.77343 0 1.4766-0.58887 0.71191-0.58887 1.1162-1.793z"
       id="path66" />
    <path
       d="m382.95 24.372q-0.82617 0.71191-1.5908 1.0459-0.76465 0.3252-1.6348 0.3252-1.292 0-2.083-0.75586-0.79102-0.76465-0.79102-1.9512 0-0.78223 0.35156-1.3799 0.36035-0.60644 0.94922-0.9668 0.58887-0.36914 1.4414-0.52734 0.53613-0.10547 2.0303-0.16699 1.5029-0.06152 2.1533-0.31641 0.18457-0.65039 0.18457-1.0811 0-0.55371-0.4043-0.87012-0.55371-0.43945-1.6172-0.43945-1.002 0-1.6436 0.44824-0.63281 0.43945-0.92285 1.2568l-1.6084-0.14062q0.49219-1.3887 1.5557-2.127 1.0723-0.73828 2.6982-0.73828 1.7314 0 2.7422 0.82617 0.77343 0.61524 0.77343 1.5996 0 0.74707-0.21972 1.7314l-0.51856 2.3203q-0.24609 1.1074-0.24609 1.8018 0 0.43945 0.19336 1.2656h-1.6084q-0.13184-0.45703-0.18457-1.1602zm0.58887-3.5684q-0.33399 0.13184-0.72071 0.20215-0.37793 0.07031-1.2744 0.14941-1.3887 0.12305-1.96 0.31641-0.57129 0.18457-0.86133 0.59766t-0.29004 0.91406q0 0.66797 0.45703 1.0986 0.46582 0.43066 1.3184 0.43066 0.79102 0 1.5205-0.41309 0.72949-0.42188 1.1514-1.1689 0.42187-0.74707 0.65918-2.127z"
       id="path68" />
    <path
       d="m390.02 24.241-0.26367 1.3008q-0.57129 0.14942-1.1074 0.14942-0.94922 0-1.5117-0.46582-0.42188-0.35156-0.42188-0.95801 0-0.30762 0.22852-1.415l1.1338-5.4229h-1.2568l0.25488-1.2305h1.2568l0.4834-2.2939 1.8193-1.0986-0.71191 3.3926h1.5644l-0.26367 1.2305h-1.5557l-1.0811 5.1592q-0.20215 0.98438-0.20215 1.1777 0 0.28125 0.15821 0.43066 0.16699 0.14941 0.53613 0.14941 0.52734 0 0.94043-0.10547z"
       id="path70" />
    <path
       d="m397.78 22.36 1.5469 0.1582q-0.33399 1.1514-1.5381 2.1885-1.1953 1.0371-2.8564 1.0371-1.0371 0-1.9072-0.47461-0.86133-0.4834-1.3184-1.3975-0.44824-0.91406-0.44824-2.083 0-1.5293 0.70312-2.9619 0.71192-1.4414 1.8369-2.1357 1.125-0.70312 2.4346-0.70312 1.6699 0 2.6631 1.0371 1.002 1.0371 1.002 2.8301 0 0.68555-0.12305 1.4062h-6.873q-0.0351 0.27246-0.0351 0.49219 0 1.3096 0.59765 2.0039 0.60645 0.68555 1.4766 0.68555 0.81738 0 1.6084-0.53613 0.79102-0.53613 1.2305-1.5469zm-4.623-2.3115h5.2383q9e-3 -0.24609 9e-3 -0.35156 0-1.1953-0.59766-1.8281-0.59766-0.6416-1.5381-0.6416-1.0195 0-1.8633 0.70312-0.83496 0.70312-1.248 2.1182z"
       id="path72" />
    <path
       d="m400.72 22.342 1.5908-0.09668q0 0.68555 0.21094 1.1689 0.21094 0.4834 0.77344 0.79102 0.57129 0.30762 1.3272 0.30762 1.0547 0 1.582-0.42188t0.52734-0.99316q0-0.41309-0.3164-0.78223-0.3252-0.36914-1.5908-0.90527-1.2568-0.54492-1.6084-0.76465-0.58887-0.36035-0.8877-0.84375-0.29883-0.49219-0.29883-1.125 0-1.1074 0.87891-1.8984 0.87891-0.79102 2.4609-0.79102 1.7578 0 2.6719 0.81738 0.92285 0.80859 0.95801 2.1357l-1.5557 0.10547q-0.0352-0.84375-0.59766-1.3359-0.5625-0.49219-1.5908-0.49219-0.82617 0-1.2832 0.37793t-0.45703 0.81738 0.3955 0.77344q0.26368 0.22852 1.3623 0.70312 1.8281 0.79102 2.3027 1.248 0.75586 0.72949 0.75586 1.7754 0 0.69434-0.43066 1.3623-0.42188 0.66797-1.3008 1.0723-0.87012 0.39551-2.0566 0.39551-1.6172 0-2.751-0.7998-1.1338-0.7998-1.0723-2.6016z"
       id="path74" />
    <path
       d="m416.92 14.45 0.37793-1.8018h1.582l-0.37793 1.8018zm-2.3203 11.083 1.9512-9.334h1.5908l-1.9512 9.334z"
       id="path76" />
    <path
       d="m418.29 25.533 1.9512-9.334h1.4414l-0.34277 1.626q0.94043-0.95801 1.7578-1.3975t1.6699-0.43945q1.1338 0 1.7754 0.61523 0.65039 0.61523 0.65039 1.6436 0 0.51855-0.22851 1.6348l-1.1865 5.6514h-1.5908l1.2393-5.915q0.18457-0.86133 0.18457-1.2744 0-0.46582-0.32519-0.75586-0.31641-0.29004-0.92286-0.29004-1.2217 0-2.1797 0.87891-0.94922 0.87891-1.3975 3.0146l-0.90528 4.3418z"
       id="path78" />
    <path
       d="m181.79 47.133 2.6982-12.885h5.3789q1.3975 0 2.0918 0.3252 0.70313 0.31641 1.1602 1.0986 0.45703 0.77344 0.45703 1.7402 0 0.7998-0.3252 1.626-0.32519 0.82617-0.82617 1.3623-0.49218 0.53613-1.002 0.80859t-1.0898 0.4043q-1.2393 0.29004-2.5049 0.29004h-3.2256l-1.0898 5.2295zm3.1201-6.6885h2.8389q1.6524 0 2.4258-0.35156 0.77344-0.36035 1.2393-1.0898 0.46582-0.72949 0.46582-1.5469 0-0.63281-0.24609-1.0283-0.2461-0.4043-0.69434-0.58887-0.44824-0.19336-1.7227-0.19336h-3.3047z"
       id="path80" />
    <path
       d="m193.15 47.133 2.6894-12.885h1.5908l-2.6894 12.885z"
       id="path82" />
    <path
       d="m203.2 45.972q-0.82617 0.71191-1.5908 1.0459-0.76464 0.3252-1.6348 0.3252-1.292 0-2.083-0.75586-0.79101-0.76465-0.79101-1.9512 0-0.78223 0.35156-1.3799 0.36035-0.60645 0.94922-0.9668 0.58886-0.36914 1.4414-0.52734 0.53614-0.10547 2.0303-0.16699 1.5029-0.06152 2.1533-0.31641 0.18457-0.65039 0.18457-1.0811 0-0.55371-0.4043-0.87012-0.55371-0.43945-1.6172-0.43945-1.002 0-1.6436 0.44824-0.63281 0.43945-0.92285 1.2568l-1.6084-0.14062q0.49219-1.3887 1.5557-2.127 1.0723-0.73828 2.6982-0.73828 1.7314 0 2.7422 0.82617 0.77344 0.61524 0.77344 1.5996 0 0.74707-0.21973 1.7314l-0.51855 2.3203q-0.2461 1.1074-0.2461 1.8018 0 0.43945 0.19336 1.2656h-1.6084q-0.13184-0.45703-0.18458-1.1602zm0.58887-3.5684q-0.33398 0.13184-0.7207 0.20215-0.37793 0.07031-1.2744 0.14941-1.3887 0.12305-1.96 0.31641-0.57129 0.18457-0.86132 0.59766-0.29004 0.41309-0.29004 0.91406 0 0.66797 0.45703 1.0986 0.46582 0.43066 1.3184 0.43066 0.79101 0 1.5205-0.41309 0.72949-0.42188 1.1514-1.1689 0.42188-0.74707 0.65918-2.127z"
       id="path84" />
    <path
       d="m206.56 47.133 1.9512-9.334h1.4414l-0.34277 1.626q0.94043-0.95801 1.7578-1.3975 0.81739-0.43945 1.6699-0.43945 1.1338 0 1.7754 0.61524 0.65039 0.61523 0.65039 1.6436 0 0.51856-0.22852 1.6348l-1.1865 5.6514h-1.5908l1.2393-5.915q0.18457-0.86133 0.18457-1.2744 0-0.46582-0.3252-0.75586-0.31641-0.29004-0.92285-0.29004-1.2217 0-2.1797 0.87891-0.94922 0.87891-1.3975 3.0146l-0.90527 4.3418z"
       id="path86" />
    <path
       d="m219.93 45.841-0.26367 1.3008q-0.57129 0.14941-1.1074 0.14941-0.94922 0-1.5117-0.46582-0.42188-0.35156-0.42188-0.95801 0-0.30762 0.22852-1.415l1.1338-5.4229h-1.2568l0.25489-1.2305h1.2568l0.4834-2.2939 1.8193-1.0986-0.71192 3.3926h1.5645l-0.26368 1.2305h-1.5557l-1.081 5.1592q-0.20215 0.98438-0.20215 1.1777 0 0.28125 0.1582 0.43066 0.16699 0.14941 0.53613 0.14941 0.52735 0 0.94043-0.10547z"
       id="path88" />
    <path
       d="m233.06 42.052 0.30762-1.459h5.6426l-1.0986 5.2471q-1.0635 0.66797-2.4258 1.0898-1.3623 0.42188-2.6807 0.42188-2.8125 0-4.2012-1.6963-1.169-1.4326-1.169-3.6826 0-2.3203 1.0195-4.2188 1.0283-1.9072 2.584-2.8125 1.5644-0.91406 3.4717-0.91406 1.3711 0 2.4609 0.50098 1.0898 0.49219 1.6699 1.3271 0.58007 0.82617 0.83496 2.1621l-1.6875 0.18457q-0.27246-1.3271-1.1338-2.0303-0.85254-0.71191-2.1973-0.71191-1.3975 0-2.6104 0.76465-1.2129 0.75586-1.9424 2.2939-0.72071 1.5293-0.72071 3.4805 0 1.9424 0.95801 2.9355t2.6455 0.99316q1.6787 0 3.6123-1.1074l0.58008-2.7686z"
       id="path90" />
    <path
       d="m246.76 43.96 1.5469 0.1582q-0.33399 1.1514-1.5381 2.1885-1.1953 1.0371-2.8564 1.0371-1.0371 0-1.9072-0.47461-0.86133-0.4834-1.3184-1.3975-0.44824-0.91406-0.44824-2.083 0-1.5293 0.70312-2.9619 0.71192-1.4414 1.8369-2.1357 1.125-0.70312 2.4346-0.70312 1.6699 0 2.6631 1.0371 1.002 1.0371 1.002 2.8301 0 0.68555-0.12305 1.4062h-6.873q-0.0351 0.27246-0.0351 0.49219 0 1.3096 0.59765 2.0039 0.60645 0.68555 1.4766 0.68555 0.81739 0 1.6084-0.53613 0.79102-0.53613 1.2305-1.5469zm-4.623-2.3115h5.2383q9e-3 -0.24609 9e-3 -0.35156 0-1.1953-0.59765-1.8281-0.59766-0.6416-1.5381-0.6416-1.0195 0-1.8633 0.70312-0.83496 0.70312-1.248 2.1182z"
       id="path92" />
    <path
       d="m249.56 47.133 1.9512-9.334h1.4414l-0.34277 1.626q0.94043-0.95801 1.7578-1.3975 0.81738-0.43945 1.6699-0.43945 1.1338 0 1.7754 0.61524 0.6504 0.61523 0.6504 1.6436 0 0.51856-0.22852 1.6348l-1.1865 5.6514h-1.5908l1.2392-5.915q0.18457-0.86133 0.18457-1.2744 0-0.46582-0.32519-0.75586-0.31641-0.29004-0.92285-0.29004-1.2217 0-2.1797 0.87891-0.94922 0.87891-1.3975 3.0146l-0.90527 4.3418z"
       id="path94" />
    <path
       d="m266.06 43.96 1.5469 0.1582q-0.33399 1.1514-1.5381 2.1885-1.1953 1.0371-2.8564 1.0371-1.0371 0-1.9072-0.47461-0.86133-0.4834-1.3184-1.3975-0.44824-0.91406-0.44824-2.083 0-1.5293 0.70312-2.9619 0.71192-1.4414 1.8369-2.1357 1.125-0.70312 2.4346-0.70312 1.6699 0 2.6631 1.0371 1.002 1.0371 1.002 2.8301 0 0.68555-0.12305 1.4062h-6.873q-0.0352 0.27246-0.0352 0.49219 0 1.3096 0.59765 2.0039 0.60645 0.68555 1.4766 0.68555 0.81739 0 1.6084-0.53613 0.79102-0.53613 1.2305-1.5469zm-4.623-2.3115h5.2383q9e-3 -0.24609 9e-3 -0.35156 0-1.1953-0.59766-1.8281-0.59766-0.6416-1.5381-0.6416-1.0195 0-1.8633 0.70312-0.83496 0.70312-1.248 2.1182z"
       id="path96" />
    <path
       d="m272.57 45.841-0.26368 1.3008q-0.57129 0.14941-1.1074 0.14941-0.94922 0-1.5117-0.46582-0.42187-0.35156-0.42187-0.95801 0-0.30762 0.22851-1.415l1.1338-5.4229h-1.2568l0.25488-1.2305h1.2568l0.48339-2.2939 1.8193-1.0986-0.71191 3.3926h1.5644l-0.26367 1.2305h-1.5557l-1.081 5.1592q-0.20215 0.98438-0.20215 1.1777 0 0.28125 0.1582 0.43066 0.167 0.14941 0.53614 0.14941 0.52734 0 0.94043-0.10547z"
       id="path98" />
    <path
       d="m275.74 36.05 0.37793-1.8018h1.582l-0.37793 1.8018zm-2.3203 11.083 1.9512-9.334h1.5908l-1.9512 9.334z"
       id="path100" />
    <path
       d="m283.56 43.731 1.5908 0.16699q-0.59766 1.749-1.7051 2.6016-1.0986 0.84375-2.5049 0.84375-1.5205 0-2.4697-0.98438-0.94043-0.98438-0.94043-2.751 0-1.5293 0.60645-3.0059 0.60644-1.4766 1.7314-2.2412 1.1338-0.77344 2.584-0.77344 1.5029 0 2.3818 0.85254 0.87891 0.84375 0.87891 2.2412l-1.5645 0.10547q-9e-3 -0.8877-0.51855-1.3887-0.50098-0.50098-1.3272-0.50098-0.95801 0-1.6611 0.60644-0.70313 0.60644-1.1074 1.8457-0.39551 1.2305-0.39551 2.373 0 1.1953 0.52734 1.793 0.52735 0.59766 1.3008 0.59766 0.77344 0 1.4766-0.58887 0.71191-0.58887 1.1162-1.793z"
       id="path102" />
    <path
       d="m291.44 47.133 2.6982-12.885h5.4053q1.5996 0 2.4258 0.27246 0.82617 0.26367 1.292 1.002 0.47461 0.73828 0.47461 1.8633 0 1.5732-1.0283 2.6104-1.0283 1.0371-3.3223 1.3447 0.70313 0.51856 1.0635 1.0195 0.80859 1.1338 1.3008 2.3467l0.98437 2.4258h-1.9248l-0.92285-2.3994q-0.50098-1.3008-1.1426-2.25-0.43945-0.65918-0.89648-0.86133-0.45704-0.21094-1.4854-0.21094h-2.0039l-1.1953 5.7217zm3.208-7.1191h2.3818q1.6524 0 2.1533-0.04395 0.97559-0.09668 1.5996-0.43945 0.62403-0.34277 0.9668-0.92285 0.34277-0.58008 0.34277-1.248 0-0.5625-0.25488-0.97559-0.25488-0.42188-0.66797-0.57129-0.41308-0.14941-1.4062-0.14941h-4.2012z"
       id="path104" />
    <path
       d="m310.69 43.96 1.5469 0.1582q-0.33399 1.1514-1.5381 2.1885-1.1953 1.0371-2.8564 1.0371-1.0371 0-1.9072-0.47461-0.86133-0.4834-1.3184-1.3975-0.44824-0.91406-0.44824-2.083 0-1.5293 0.70312-2.9619 0.71192-1.4414 1.8369-2.1357 1.125-0.70312 2.4346-0.70312 1.6699 0 2.6631 1.0371 1.002 1.0371 1.002 2.8301 0 0.68555-0.12305 1.4062h-6.873q-0.0351 0.27246-0.0351 0.49219 0 1.3096 0.59765 2.0039 0.60645 0.68555 1.4766 0.68555 0.81738 0 1.6084-0.53613 0.79101-0.53613 1.2305-1.5469zm-4.623-2.3115h5.2383q9e-3 -0.24609 9e-3 -0.35156 0-1.1953-0.59766-1.8281-0.59766-0.6416-1.5381-0.6416-1.0195 0-1.8633 0.70312-0.83496 0.70312-1.248 2.1182z"
       id="path106" />
    <path
       d="m313.63 43.942 1.5908-0.09668q0 0.68555 0.21093 1.1689 0.21094 0.4834 0.77344 0.79102 0.57129 0.30762 1.3272 0.30762 1.0547 0 1.582-0.42188t0.52734-0.99316q0-0.41309-0.3164-0.78223-0.3252-0.36914-1.5908-0.90527-1.2568-0.54492-1.6084-0.76465-0.58887-0.36035-0.8877-0.84375-0.29882-0.49219-0.29882-1.125 0-1.1074 0.8789-1.8984 0.87891-0.79102 2.4609-0.79102 1.7578 0 2.6719 0.81738 0.92286 0.80859 0.95801 2.1357l-1.5557 0.10547q-0.0352-0.84375-0.59766-1.3359-0.5625-0.49219-1.5908-0.49219-0.82617 0-1.2832 0.37793-0.45703 0.37793-0.45703 0.81738 0 0.43945 0.39551 0.77344 0.26367 0.22852 1.3623 0.70312 1.8281 0.79102 2.3027 1.248 0.75586 0.72949 0.75586 1.7754 0 0.69434-0.43066 1.3623-0.42188 0.66797-1.3008 1.0723-0.87012 0.39551-2.0566 0.39551-1.6172 0-2.751-0.7998t-1.0723-2.6016z"
       id="path108" />
    <path
       d="m322.4 43.591q0-2.7334 1.6084-4.5264 1.3272-1.4766 3.4805-1.4766 1.6875 0 2.7158 1.0547 1.0371 1.0547 1.0371 2.8477 0 1.6084-0.65039 2.9971-0.65039 1.3799-1.8545 2.1182-1.1953 0.73828-2.5225 0.73828-1.0898 0-1.9863-0.46582-0.8877-0.46582-1.3623-1.3184-0.46582-0.85254-0.46582-1.9688zm1.5908-0.1582q0 1.3184 0.63281 2.0039 0.63282 0.67676 1.6084 0.67676 0.50977 0 1.0107-0.20215 0.50098-0.21094 0.93165-0.63281 0.43066-0.42188 0.72949-0.95801 0.30761-0.54492 0.49218-1.1689 0.27247-0.87012 0.27247-1.6699 0-1.2656-0.64161-1.96-0.63281-0.70312-1.5996-0.70312-0.74707 0-1.3623 0.36035-0.61523 0.35156-1.1162 1.0371-0.49219 0.68555-0.72949 1.5996-0.22852 0.90527-0.22852 1.6172z"
       id="path110" />
    <path
       d="m338.14 45.445q-1.6787 1.8984-3.4365 1.8984-1.081 0-1.749-0.61524-0.65918-0.62402-0.65918-1.5205 0-0.58887 0.29883-2.0215l1.125-5.3877h1.5908l-1.248 5.9678q-0.1582 0.74707-0.1582 1.1602 0 0.52734 0.31641 0.82617 0.32519 0.29004 0.94921 0.29004 0.66797 0 1.3008-0.3252 0.6416-0.3252 1.0986-0.87891 0.46582-0.55371 0.75586-1.3096 0.19336-0.4834 0.44824-1.6963l0.84375-4.0342h1.5908l-1.9512 9.334h-1.4678z"
       id="path112" />
    <path
       d="m341.41 47.133 1.9512-9.334h1.4062l-0.39551 1.9072q0.7207-1.0811 1.4062-1.5996 0.69433-0.51856 1.415-0.51856 0.47461 0 1.1689 0.34277l-0.65039 1.4766q-0.41308-0.29883-0.90527-0.29883-0.83496 0-1.7139 0.93164-0.87891 0.93164-1.3799 3.3486l-0.79102 3.7441z"
       id="path114" />
    <path
       d="m353.5 43.731 1.5908 0.16699q-0.59765 1.749-1.7051 2.6016-1.0986 0.84375-2.5049 0.84375-1.5205 0-2.4697-0.98438-0.94043-0.98438-0.94043-2.751 0-1.5293 0.60644-3.0059 0.60645-1.4766 1.7314-2.2412 1.1338-0.77344 2.584-0.77344 1.5029 0 2.3818 0.85254 0.8789 0.84375 0.8789 2.2412l-1.5644 0.10547q-9e-3 -0.8877-0.51855-1.3887-0.50098-0.50098-1.3272-0.50098-0.95801 0-1.6611 0.60644-0.70313 0.60644-1.1074 1.8457-0.3955 1.2305-0.3955 2.373 0 1.1953 0.52734 1.793 0.52734 0.59766 1.3008 0.59766t1.4766-0.58887q0.71192-0.58887 1.1162-1.793z"
       id="path116" />
    <path
       d="m362.54 43.96 1.5469 0.1582q-0.33398 1.1514-1.5381 2.1885-1.1953 1.0371-2.8564 1.0371-1.0371 0-1.9072-0.47461-0.86133-0.4834-1.3184-1.3975-0.44824-0.91406-0.44824-2.083 0-1.5293 0.70313-2.9619 0.71191-1.4414 1.8369-2.1357 1.125-0.70312 2.4346-0.70312 1.6699 0 2.6631 1.0371 1.002 1.0371 1.002 2.8301 0 0.68555-0.12305 1.4062h-6.873q-0.0352 0.27246-0.0352 0.49219 0 1.3096 0.59766 2.0039 0.60644 0.68555 1.4766 0.68555 0.81738 0 1.6084-0.53613 0.79101-0.53613 1.2305-1.5469zm-4.623-2.3115h5.2383q9e-3 -0.24609 9e-3 -0.35156 0-1.1953-0.59766-1.8281-0.59765-0.6416-1.5381-0.6416-1.0195 0-1.8633 0.70312-0.83497 0.70312-1.248 2.1182z"
       id="path118" />
    <path
       d="m365.48 43.942 1.5908-0.09668q0 0.68555 0.21093 1.1689 0.21094 0.4834 0.77344 0.79102 0.57129 0.30762 1.3272 0.30762 1.0547 0 1.582-0.42188 0.52735-0.42188 0.52735-0.99316 0-0.41309-0.31641-0.78223-0.3252-0.36914-1.5908-0.90527-1.2568-0.54492-1.6084-0.76465-0.58887-0.36035-0.88769-0.84375-0.29883-0.49219-0.29883-1.125 0-1.1074 0.8789-1.8984 0.87891-0.79102 2.4609-0.79102 1.7578 0 2.6719 0.81738 0.92285 0.80859 0.958 2.1357l-1.5557 0.10547q-0.0352-0.84375-0.59766-1.3359-0.5625-0.49219-1.5908-0.49219-0.82617 0-1.2832 0.37793-0.45703 0.37793-0.45703 0.81738 0 0.43945 0.39551 0.77344 0.26367 0.22852 1.3623 0.70312 1.8281 0.79102 2.3027 1.248 0.75585 0.72949 0.75585 1.7754 0 0.69434-0.43066 1.3623-0.42187 0.66797-1.3008 1.0723-0.87012 0.39551-2.0566 0.39551-1.6172 0-2.751-0.7998t-1.0723-2.6016z"
       id="path120" />
    <path
       d="m389.67 42.597 1.7051 0.2373q-0.80859 2.2324-2.3555 3.375-1.5469 1.1426-3.4717 1.1426-2.3467 0-3.7266-1.4326-1.3711-1.4326-1.3711-4.1045 0-3.4805 2.0918-5.7568 1.8633-2.0303 4.6318-2.0303 2.0478 0 3.3135 1.0986 1.2744 1.0986 1.4766 2.9531l-1.6084 0.14941q-0.25488-1.3975-1.0547-2.083-0.79101-0.69434-2.0478-0.69434-2.3643 0-3.8232 2.1006-1.2656 1.8105-1.2656 4.2979 0 1.9863 0.97559 3.0322 0.97558 1.0459 2.54 1.0459 1.3359 0 2.417-0.87012 1.081-0.87012 1.5732-2.4609z"
       id="path122" />
    <path
       d="m392.34 43.591q0-2.7334 1.6084-4.5264 1.3272-1.4766 3.4805-1.4766 1.6875 0 2.7158 1.0547 1.0371 1.0547 1.0371 2.8477 0 1.6084-0.65039 2.9971-0.65039 1.3799-1.8545 2.1182-1.1953 0.73828-2.5225 0.73828-1.0898 0-1.9863-0.46582-0.8877-0.46582-1.3623-1.3184-0.46582-0.85254-0.46582-1.9688zm1.5908-0.1582q0 1.3184 0.63282 2.0039 0.63281 0.67676 1.6084 0.67676 0.50976 0 1.0107-0.20215 0.50097-0.21094 0.93164-0.63281 0.43066-0.42188 0.72949-0.95801 0.30762-0.54492 0.49219-1.1689 0.27246-0.87012 0.27246-1.6699 0-1.2656-0.6416-1.96-0.63282-0.70312-1.5996-0.70312-0.74707 0-1.3623 0.36035-0.61523 0.35156-1.1162 1.0371-0.49219 0.68555-0.72949 1.5996-0.22852 0.90527-0.22852 1.6172z"
       id="path124" />
    <path
       d="m401.58 47.133 2.6894-12.885h1.5908l-2.6894 12.885z"
       id="path126" />
    <path
       d="m405.22 47.133 2.6894-12.885h1.5908l-2.6894 12.885z"
       id="path128" />
    <path
       d="m415.84 43.96 1.5469 0.1582q-0.33398 1.1514-1.5381 2.1885-1.1953 1.0371-2.8564 1.0371-1.0371 0-1.9072-0.47461-0.86133-0.4834-1.3184-1.3975-0.44825-0.91406-0.44825-2.083 0-1.5293 0.70313-2.9619 0.71191-1.4414 1.8369-2.1357 1.125-0.70312 2.4346-0.70312 1.6699 0 2.6631 1.0371 1.002 1.0371 1.002 2.8301 0 0.68555-0.12304 1.4062h-6.873q-0.0352 0.27246-0.0352 0.49219 0 1.3096 0.59766 2.0039 0.60644 0.68555 1.4766 0.68555 0.81738 0 1.6084-0.53613 0.79102-0.53613 1.2305-1.5469zm-4.623-2.3115h5.2383q9e-3 -0.24609 9e-3 -0.35156 0-1.1953-0.59765-1.8281-0.59766-0.6416-1.5381-0.6416-1.0195 0-1.8633 0.70312-0.83496 0.70312-1.248 2.1182z"
       id="path130" />
    <path
       d="m425.07 43.731 1.5908 0.16699q-0.59765 1.749-1.7051 2.6016-1.0986 0.84375-2.5049 0.84375-1.5205 0-2.4697-0.98438-0.94043-0.98438-0.94043-2.751 0-1.5293 0.60644-3.0059 0.60645-1.4766 1.7314-2.2412 1.1338-0.77344 2.584-0.77344 1.5029 0 2.3818 0.85254 0.8789 0.84375 0.8789 2.2412l-1.5644 0.10547q-9e-3 -0.8877-0.51855-1.3887-0.50098-0.50098-1.3272-0.50098-0.95801 0-1.6611 0.60644-0.70312 0.60644-1.1074 1.8457-0.39551 1.2305-0.39551 2.373 0 1.1953 0.52735 1.793 0.52734 0.59766 1.3008 0.59766t1.4766-0.58887q0.71192-0.58887 1.1162-1.793z"
       id="path132" />
    <path
       d="m430.98 45.841-0.26367 1.3008q-0.57129 0.14941-1.1074 0.14941-0.94921 0-1.5117-0.46582-0.42188-0.35156-0.42188-0.95801 0-0.30762 0.22852-1.415l1.1338-5.4229h-1.2568l0.25488-1.2305h1.2568l0.4834-2.2939 1.8193-1.0986-0.71191 3.3926h1.5644l-0.26367 1.2305h-1.5557l-1.0811 5.1592q-0.20215 0.98438-0.20215 1.1777 0 0.28125 0.15821 0.43066 0.16699 0.14941 0.53613 0.14941 0.52734 0 0.94043-0.10547z"
       id="path134" />
    <path
       d="m434.14 36.05 0.37793-1.8018h1.582l-0.37793 1.8018zm-2.3203 11.083 1.9512-9.334h1.5908l-1.9512 9.334z"
       id="path136" />
    <path
       d="m435.8 43.591q0-2.7334 1.6084-4.5264 1.3272-1.4766 3.4805-1.4766 1.6875 0 2.7158 1.0547 1.0371 1.0547 1.0371 2.8477 0 1.6084-0.65039 2.9971-0.65039 1.3799-1.8545 2.1182-1.1953 0.73828-2.5225 0.73828-1.0898 0-1.9863-0.46582-0.88769-0.46582-1.3623-1.3184-0.46582-0.85254-0.46582-1.9688zm1.5908-0.1582q0 1.3184 0.63281 2.0039 0.63282 0.67676 1.6084 0.67676 0.50977 0 1.0107-0.20215 0.50098-0.21094 0.93164-0.63281 0.43067-0.42188 0.7295-0.95801 0.30761-0.54492 0.49218-1.1689 0.27246-0.87012 0.27246-1.6699 0-1.2656-0.6416-1.96-0.63281-0.70312-1.5996-0.70312-0.74707 0-1.3623 0.36035-0.61524 0.35156-1.1162 1.0371-0.49219 0.68555-0.72949 1.5996-0.22852 0.90527-0.22852 1.6172z"
       id="path138" />
    <path
       d="m445.17 47.133 1.9512-9.334h1.4414l-0.34277 1.626q0.94043-0.95801 1.7578-1.3975 0.81739-0.43945 1.6699-0.43945 1.1338 0 1.7754 0.61524 0.65039 0.61523 0.65039 1.6436 0 0.51856-0.22852 1.6348l-1.1865 5.6514h-1.5908l1.2392-5.915q0.18457-0.86133 0.18457-1.2744 0-0.46582-0.32519-0.75586-0.31641-0.29004-0.92285-0.29004-1.2217 0-2.1797 0.87891-0.94922 0.87891-1.3975 3.0146l-0.90527 4.3418z"
       id="path140" />
    <path
       d="m454.97 43.942 1.5908-0.09668q0 0.68555 0.21093 1.1689 0.21094 0.4834 0.77344 0.79102 0.57129 0.30762 1.3272 0.30762 1.0547 0 1.582-0.42188t0.52734-0.99316q0-0.41309-0.3164-0.78223-0.3252-0.36914-1.5908-0.90527-1.2568-0.54492-1.6084-0.76465-0.58887-0.36035-0.8877-0.84375-0.29882-0.49219-0.29882-1.125 0-1.1074 0.8789-1.8984 0.87891-0.79102 2.4609-0.79102 1.7578 0 2.6719 0.81738 0.92285 0.80859 0.958 2.1357l-1.5557 0.10547q-0.0352-0.84375-0.59766-1.3359-0.5625-0.49219-1.5908-0.49219-0.82617 0-1.2832 0.37793-0.45703 0.37793-0.45703 0.81738 0 0.43945 0.39551 0.77344 0.26367 0.22852 1.3623 0.70312 1.8281 0.79102 2.3027 1.248 0.75586 0.72949 0.75586 1.7754 0 0.69434-0.43066 1.3623-0.42187 0.66797-1.3008 1.0723-0.87012 0.39551-2.0566 0.39551-1.6172 0-2.751-0.7998t-1.0723-2.6016z"
       id="path142" />
  </g>
  <rect
     x="173.24"
     y="3.7595"
     width="2.8917"
     height="52.481"
     fill="#0051d6"
     stroke-width="0"
     id="rect146" />
</svg>
